<?xml version="1.0" encoding="utf-8"?>
<!-- Generator: Adobe Illustrator 23.1.1, SVG Export Plug-In . SVG Version: 6.00 Build 0)  -->
<svg version="1.1" id="Calque_1" xmlns="http://www.w3.org/2000/svg" xmlns:xlink="http://www.w3.org/1999/xlink" x="0px" y="0px"
	 viewBox="0 0 304.6 94.2" style="enable-background:new 0 0 304.6 94.2;" xml:space="preserve">
<style type="text/css">
	.st0{fill:#FFFFFF;}
</style>
<g>
	<path class="st0" d="M19.4,55.6c0-2.1-0.1-4.2-0.1-6.3c-0.7,1.9-4.3,8.2-6.5,8.2c-0.6,0-1-0.4-1-1c0-0.7,0.3-1.1,0.7-1.6
		c0.2-0.4,0.5-0.7,0.7-1c2.6-3.7,4.3-6.7,5.2-10.5c0.4-1.6,1.4-6,4.5-6c1.8,0,2,2.4,2,4.1c0,12.9-0.5,36.2-10.2,46
		c-2,2.1-5.1,4-8.1,4c-4.4,0-6.4-4-6.4-7.9c0-10,10.2-18.9,17.8-23.9l1.3-0.9L19.4,55.6z M3.3,83.9c0,1.8,0.8,4.2,3,4.2
		c7.5,0,11.8-20.3,12.6-26.1C13.3,66.6,3.3,76,3.3,83.9z M21.5,26.3c1.9,0,3.1,1.8,3.1,3.6c0,1.8-1.2,3.7-3.1,3.7s-3.1-1.9-3.1-3.7
		C18.4,28.1,19.6,26.3,21.5,26.3z"/>
	<path class="st0" d="M46.1,35.7c5.4,0,6.9,5.6,6.9,10c0,6.4-2.3,13.5-7.8,17.2c-1.7,1.1-3.7,1.9-5.7,1.9c-5.3,0-7-5.3-7-9.7
		C32.5,47.8,37.4,35.7,46.1,35.7z M37.7,55.3c0,2.3,0.7,6,3.7,6c1.2,0,2.4-0.7,3.4-1.4C48.4,57,50,51.6,50,47.1
		c0-2.4-0.7-6.6-3.8-6.6C40.7,40.5,37.7,50.9,37.7,55.3z"/>
	<path class="st0" d="M58.7,43.2c0-10.2,1.5-20.4,5.6-29.8C65.8,9.9,70,2.6,74.4,2.6c3.4,0,4.4,3.8,4.4,6.6c0,9.1-4.8,22.2-9.1,30.2
		c-1,2-2.3,3.7-3.5,5.6c-0.4,0.6-1,1.5-1.2,2.1c-0.3,0.8-0.3,2.3-0.3,3.2c0,2.9,0.6,11.6,4.6,11.6c3.6,0,8.6-6.1,10.4-8.9l1.9-3
		c0.4-0.6,0.8-1,1.5-1c0.8,0,1,0.7,1,1.3c0,0.9-0.5,1.8-1,2.6L83,53c-2.9,4.8-9.2,13.4-15.3,13.4C59.5,66.3,58.7,48.9,58.7,43.2z
		 M68.5,16.2c-2.1,7-4.2,15.1-4.2,22.1c0,0.7,0,1.4,0.1,2.1c4.8-8,11.3-22.2,11.3-31.5c0-0.7,0-2.7-1.1-2.7
		C71.5,6.1,69.3,13.5,68.5,16.2z"/>
	<path class="st0" d="M89.2,61.4c4,0,9.7-8.4,11.9-11.9c0.4-0.7,1-1.5,1.8-1.5c1,0,1,0.9,1,1.6c0,1-1.4,2.9-2,3.7
		c-2.8,4-9,11.7-14.2,11.7c-5.8,0-6.7-8.3-6.7-12.5c0-2.7,0.7-6.4,1.5-9c0.9-2.6,2.2-4.7,5.3-4.7c1.1,0,1.7,0.4,1.7,1.6
		c0,2-1.7,5.6-2.2,7.8c-0.4,2.1-0.7,4.3-0.7,6.5C86.6,56.4,86.7,61.4,89.2,61.4z M92.1,30.4c0,1.9-1.5,3.9-3.5,3.9
		c-1.5,0-2.5-1.3-2.5-2.8c0-1.8,1.5-3.9,3.4-3.9C91.1,27.7,92.1,29,92.1,30.4z"/>
	<path class="st0" d="M99.4,54.5c0-6.6,5.3-20.6,13.2-20.6c2.6,0,4.1,1.8,4.1,4.4c0,4.9-6.9,12.7-11.3,14.3c-0.2,1-0.4,2-0.4,3.1
		c0,3.3,1.3,5.3,4.8,5.3c6.1,0,11.1-5.3,14-10.2c0.4-0.7,1.2-1.9,2.2-1.9c0.4,0,1,0.3,1,0.8c0,1-0.2,1.4-0.7,2.2
		c-3.8,6.7-10.8,12.5-18.8,12.5C101.7,64.4,99.4,59.7,99.4,54.5z M105.6,49.8c3.1-1.9,7.9-6.9,7.9-10.8c0-0.8-0.3-1.7-1.2-1.7
		C109.3,37.3,106,47.2,105.6,49.8z"/>
	<path class="st0" d="M136.9,46.7c3.7,3.3,4.6,10.7,4.6,15.3c0,7.2-2.6,20.6-12,20.6c-6.2,0-6.2-14.2-6.2-18.4
		c0-20.3,3.7-39.6,11-58.6c0.4-1.1,0.9-2.2,1.7-3.1c1.1-1.2,4-2.6,5.7-2.6c1.3,0,1.8,1,1.8,2.2c0,1-0.3,1.8-0.7,2.6
		c-1.3,2.6-2.6,5.3-4,8.4c-4.1,9.4-7.4,19.3-9,29.5c1.6,0.6,5.4,0.7,7.2,0.7c1.2,0,2.4-0.1,3.6-0.3c0.7-0.1,1.5-0.4,2.3-0.4
		c0.6,0,1.2,0.1,1.2,0.9c0,2.8-2.6,3.1-4.9,3.1L136.9,46.7z M126.7,68.7c0,2,0.3,11.1,3.1,11.1c5.5,0,6.4-12.6,6.4-15.9
		c0-5.9-1.9-12.8-7.5-15.7C127.7,55,126.7,61.8,126.7,68.7z"/>
	<path class="st0" d="M181,54.6c-2.7,3.8-8.1,10.5-13.2,10.5c-4.8,0-5.4-7.9-5.4-11.3c-1.9,3-6.4,9.7-10.2,9.7
		c-3.6,0-4.4-4.8-4.4-7.6c0-7.7,8-21.1,16.5-21.1c1,0,2.4,1.2,2.4,2.3c0,0.4-0.4,0.7-0.7,0.9c-2.6,1.5-5.1,3.2-7.2,5.4
		c-3.8,3.9-6.2,8.9-6.2,14.3c0,0.6,0.1,1.8,1,1.8c3.3,0,9.4-13,10.8-16c0.5-1.1,1.1-2.2,2.5-2.2c0.7,0,1.7,0.2,1.7,1.2
		s-1,3.1-1.3,4.2c-0.8,2.5-1.1,5.6-1.1,8.1c0,1.5,0.1,7.2,2.3,7.2c3.4,0,8.9-7.2,10.9-9.9c0,0,1-1.8,2-1.8c0.9,0,1.2,0.6,1.2,1.4
		C182.6,52.5,181.5,53.9,181,54.6z"/>
	<path class="st0" d="M198.2,46.1v-4.5c0-0.4,0-1.5-0.7-1.5c-3,0-13.1,18.2-14.6,21.6c-0.5,1.1-1.2,2.2-2.6,2.2
		c-1,0-1.5-0.7-1.5-1.6c0-4.5,4.1-25.6,6-29.2c1-1.9,3.7-2.9,5.7-2.9c1.1,0,1.5,0.7,1.5,1.8c0,2-1.8,5.7-2.6,7.7
		c-1.1,2.6-1.8,5.5-2.2,8.3c0,0,7.9-12.5,11.9-12.5c2.3,0,3.1,3.4,3.1,5.5l-0.1,10.3c0,0-0.1,3.8,0.6,3.8c0.3,0,0.9-1,1-1.3
		c1.8-2.9,3.8-5.7,5.8-8.5c2.3-3.3,6.2-9.9,10.8-9.9c3.1,0,4.5,3.4,4.5,6.1c0,5.6-1,11.3-1,16.9c0,1.4,0,4,2,4
		c3.3,0,8.9-6.1,10.8-8.7c0.5-0.7,1.3-1.9,2.3-1.9c0.9,0,1,0.9,1,1.5c0,0.5-0.4,1.1-0.7,1.5c-2.9,4-10.2,11.5-15.4,11.5
		c-4.8,0-5.1-6.3-5.1-9.8c0-4.4,0.7-8.8,0.7-13.2c0-0.8,0-3-1.2-3c-3.5,0-13,18.2-15.2,21.7c-0.4,0.7-1,1.3-2,1.3
		C198.5,63.1,198.2,52.6,198.2,46.1z"/>
	<path class="st0" d="M246.3,61.4c4,0,9.7-8.4,11.9-11.9c0.4-0.7,1-1.5,1.8-1.5c1,0,1,0.9,1,1.6c0,1-1.4,2.9-2,3.7
		c-2.8,4-9,11.7-14.2,11.7c-5.8,0-6.7-8.3-6.7-12.5c0-2.7,0.7-6.4,1.5-9c0.9-2.6,2.2-4.7,5.3-4.7c1.1,0,1.7,0.4,1.7,1.6
		c0,2-1.7,5.6-2.2,7.8c-0.4,2.1-0.7,4.3-0.7,6.5C243.8,56.4,243.8,61.4,246.3,61.4z M249.2,30.4c0,1.9-1.5,3.9-3.5,3.9
		c-1.5,0-2.5-1.3-2.5-2.8c0-1.8,1.5-3.9,3.4-3.9C248.2,27.7,249.2,29,249.2,30.4z"/>
	<path class="st0" d="M256.9,43.2c0-10.2,1.5-20.4,5.6-29.8c1.5-3.5,5.7-10.8,10.1-10.8c3.4,0,4.4,3.8,4.4,6.6
		c0,9.1-4.8,22.2-9.1,30.2c-1,2-2.3,3.7-3.5,5.6c-0.4,0.6-1,1.5-1.2,2.1c-0.3,0.8-0.3,2.3-0.3,3.2c0,2.9,0.6,11.6,4.6,11.6
		c3.6,0,8.6-6.1,10.4-8.9l1.9-3c0.4-0.6,0.8-1,1.5-1c0.8,0,1,0.7,1,1.3c0,0.9-0.5,1.8-1,2.6l-0.1,0.1c-2.9,4.8-9.2,13.4-15.3,13.4
		C257.7,66.3,256.9,48.9,256.9,43.2z M266.7,16.2c-2.1,7-4.2,15.1-4.2,22.1c0,0.7,0,1.4,0.1,2.1c4.8-8,11.3-22.2,11.3-31.5
		c0-0.7,0-2.7-1.1-2.7C269.7,6.1,267.5,13.5,266.7,16.2z"/>
	<path class="st0" d="M280.1,85.9c0-9.8,11.6-19.5,19.2-24.4c0.1-1.4,0.1-2.8,0.1-4.2c0-3.8-0.1-7.5-0.2-11.3
		c-2.4,4-12.1,15.1-16.9,15.1c-3.3,0-4-3.2-4-5.9c0-4.4,1.2-9,2.6-13.2c0.3-1,0.5-1.9,1-2.8c0.6-1.2,1.4-2,2.8-2
		c1.6,0,3.1,1.3,3.1,3c0,1.2-1.1,3.2-1.5,4.4c-1,2.6-3.1,8.9-3.1,11.5c0,0.4,0,1.5,0.7,1.5c1.2,0,4.2-3.1,5.1-4
		c4-4,7.2-8.8,10.7-13.2c0.7-0.8,1.5-2,2.6-2c0.5,0,1,0.2,1.5,0.5c1.2,0.8,1.2,6.4,1.2,8.1c0,13.1-0.4,28.3-7.6,39.4
		c-2.4,3.7-6.4,7.5-11.1,7.5C281.8,93.8,280.1,89.7,280.1,85.9z M283.4,86c0,1.8,0.5,4.7,2.9,4.7c2.3,0,4.6-2.7,5.9-4.4
		c3.8-5.1,6.1-15.4,6.8-21.7C292.7,69.5,283.4,77.4,283.4,86z"/>
</g>
</svg>
